ffmpeg version 2.8.11-0ubuntu0.16.04.1 Copyright (c) 2000-2017 the FFmpeg developers
  built with gcc 5.4.0 (Ubuntu 5.4.0-6ubuntu1~16.04.4) 20160609
  configuration: --prefix=/usr --extra-version=0ubuntu0.16.04.1 --build-suffix=-ffmpeg --toolchain=hardened --libdir=/usr/lib/x86_64-linux-gnu --incdir=/usr/include/x86_64-linux-gnu --cc=cc --cxx=g++ --enable-gpl --enable-shared --disable-stripping --disable-decoder=libopenjpeg --disable-decoder=libschroedinger --enable-avresample --enable-avisynth --enable-gnutls --enable-ladspa --enable-libass --enable-libbluray --enable-libbs2b --enable-libcaca --enable-libcdio --enable-libflite --enable-libfontconfig --enable-libfreetype --enable-libfribidi --enable-libgme --enable-libgsm --enable-libmodplug --enable-libmp3lame --enable-libopenjpeg --enable-libopus --enable-libpulse --enable-librtmp --enable-libschroedinger --enable-libshine --enable-libsnappy --enable-libsoxr --enable-libspeex --enable-libssh --enable-libtheora --enable-libtwolame --enable-libvorbis --enable-libvpx --enable-libwavpack --enable-libwebp --enable-libx265 --enable-libxvid --enable-libzvbi --enable-openal --enable-opengl --enable-x11grab --enable-libdc1394 --enable-libiec61883 --enable-libzmq --enable-frei0r --enable-libx264 --enable-libopencv
  libavutil      54. 31.100 / 54. 31.100
  libavcodec     56. 60.100 / 56. 60.100
  libavformat    56. 40.101 / 56. 40.101
  libavdevice    56.  4.100 / 56.  4.100
  libavfilter     5. 40.101 /  5. 40.101
  libavresample   2.  1.  0 /  2.  1.  0
  libswscale      3.  1.101 /  3.  1.101
  libswresample   1.  2.101 /  1.  2.101
  libpostproc    53.  3.100 / 53.  3.100
[mp3 @ 0x8748c0] Unknown attached picture mimetype: ('image/png', None), skipping.
[mp3 @ 0x8748c0] Skipping 0 bytes of junk at 17522.
Input #0, mp3, from 'jan-kochanowski-treny-tren-iv.mp3':
  Metadata:
    title           : Jan Kochanowski, "Treny", Tren IV
    artist          : Paweł Paprocki
    album           : Wolne Lektury
    encoder         : Lavf53.21.0
    genre           : Speech
    originator_reference: CtIbsdqpiucaaaGk
    date            : 2008-10-20
    performer       : Gosia Kozera
    album_artist    : Fundacja Nowoczesna Polska
    time_reference  : 1089583680
    copyright       : 2008 Fundacja Nowoczesna Polska. Licensed to the public under http://creativecommons.org/licenses/by-sa/3.0/deed.pl verify at http://wolnelektury.pl/katalog/lektura/treny-tren-iv/
    creation_time   : 0019-00-14
    encoded_by      : Pro Tools
    publisher       : Fundacja Nowoczesna Polska
  Duration: 00:01:23.54, start: 0.000000, bitrate: 65 kb/s
    Stream #0:0: Audio: mp3, 44100 Hz, mono, s16p, 64 kb/s
Output #0, null, to 'pipe:':
  Metadata:
    title           : Jan Kochanowski, "Treny", Tren IV
    artist          : Paweł Paprocki
    album           : Wolne Lektury
    publisher       : Fundacja Nowoczesna Polska
    genre           : Speech
    originator_reference: CtIbsdqpiucaaaGk
    date            : 2008-10-20
    performer       : Gosia Kozera
    album_artist    : Fundacja Nowoczesna Polska
    time_reference  : 1089583680
    copyright       : 2008 Fundacja Nowoczesna Polska. Licensed to the public under http://creativecommons.org/licenses/by-sa/3.0/deed.pl verify at http://wolnelektury.pl/katalog/lektura/treny-tren-iv/
    encoded_by      : Pro Tools
    encoder         : Lavf56.40.101
    Stream #0:0: Audio: pcm_s16le, 44100 Hz, mono, s16, 705 kb/s
    Metadata:
      encoder         : Lavc56.60.100 pcm_s16le
Stream mapping:
  Stream #0:0 -> #0:0 (mp3 (native) -> pcm_s16le (native))
Press [q] to stop, [?] for help
[silencedetect @ 0x892120] silence_start: -0.00367347
[silencedetect @ 0x892120] silence_end: 0.731429 | silence_duration: 0.735102
[silencedetect @ 0x892120] silence_start: 1.77265
[silencedetect @ 0x892120] silence_end: 2.37714 | silence_duration: 0.60449
[silencedetect @ 0x892120] silence_start: 2.73918
[silencedetect @ 0x892120] silence_end: 4.25796 | silence_duration: 1.51878
[silencedetect @ 0x892120] silence_start: 5.14245
[silencedetect @ 0x892120] silence_end: 7.9151 | silence_duration: 2.77265
[silencedetect @ 0x892120] silence_start: 10.9416
[silencedetect @ 0x892120] silence_end: 11.4939 | silence_duration: 0.552245
[silencedetect @ 0x892120] silence_start: 12.2216
[silencedetect @ 0x892120] silence_end: 13.1135 | silence_duration: 0.891837
[silencedetect @ 0x892120] silence_start: 15.931
[silencedetect @ 0x892120] silence_end: 17.5282 | silence_duration: 1.59714
[silencedetect @ 0x892120] silence_start: 23.8984
[silencedetect @ 0x892120] silence_end: 26.1486 | silence_duration: 2.2502
[silencedetect @ 0x892120] silence_start: 30.2722
[silencedetect @ 0x892120] silence_end: 30.9812 | silence_duration: 0.70898
[silencedetect @ 0x892120] silence_start: 38.0306
[silencedetect @ 0x892120] silence_end: 39.9412 | silence_duration: 1.91061
[silencedetect @ 0x892120] silence_start: 47.069
[silencedetect @ 0x892120] silence_end: 48.7967 | silence_duration: 1.72776
[silencedetect @ 0x892120] silence_start: 49.2894
[silencedetect @ 0x892120] silence_end: 50.129 | silence_duration: 0.839592
[silencedetect @ 0x892120] silence_start: 56.238
[silencedetect @ 0x892120] silence_end: 57.2343 | silence_duration: 0.996327
[silencedetect @ 0x892120] silence_start: 65.851
[silencedetect @ 0x892120] silence_end: 67.0302 | silence_duration: 1.17918
[silencedetect @ 0x892120] silence_start: 70.5531
[silencedetect @ 0x892120] silence_end: 73.8482 | silence_duration: 3.2951
[silencedetect @ 0x892120] silence_start: 75.0722
[silencedetect @ 0x892120] silence_end: 75.729 | silence_duration: 0.656735
[silencedetect @ 0x892120] silence_start: 79.2518
[silencedetect @ 0x892120] silence_end: 80.2482 | silence_duration: 0.996327
[silencedetect @ 0x892120] silence_start: 81.1849
size=N/A time=00:01:23.53 bitrate=N/A    
video:0kB audio:7196kB subtitle:0kB other streams:0kB global headers:0kB muxing overhead: unknown
